HIERARCHY
ROOT hip
{
  OFFSET 0 0 0
  CHANNELS 6 Xposition Yposition Zposition Zrotation Yrotation Xrotation
  JOINT abdomen
  {
    OFFSET 0 20.6881 -0.73152
    CHANNELS 3 Zrotation Xrotation Yrotation
    JOINT chest
    {
      OFFSET 0 11.7043 -0.48768
      CHANNELS 3 Zrotation Xrotation Yrotation
      JOINT neck
      {
        OFFSET 0 22.1894 -2.19456
        CHANNELS 3 Zrotation Xrotation Yrotation
        JOINT head
        {
          OFFSET -0.24384 7.07133 1.2192
          CHANNELS 3 Zrotation Xrotation Yrotation
          JOINT leftEye
          {
            OFFSET 4.14528 8.04674 8.04672
            CHANNELS 3 Zrotation Xrotation Yrotation
            End Site
            {
              OFFSET 1 0 0
            }
          }
          JOINT rightEye
          {
            OFFSET -3.6576 8.04674 8.04672
            CHANNELS 3 Zrotation Xrotation Yrotation
            End Site
            {
              OFFSET 1 0 0
            }
          }
        }
      }
      JOINT rCollar
      {
        OFFSET -2.68224 19.2634 -4.8768
        CHANNELS 3 Zrotation Xrotation Yrotation
        JOINT rShldr
        {
          OFFSET -8.77824 -1.95073 1.46304
          CHANNELS 3 Zrotation Xrotation Yrotation
          JOINT rForeArm
          {
            OFFSET -28.1742 -1.7115 0.48768
            CHANNELS 3 Zrotation Xrotation Yrotation
            JOINT rHand
            {
              OFFSET -22.5879 0.773209 7.07136
              CHANNELS 3 Zrotation Xrotation Yrotation
              JOINT rThumb1
              {
                OFFSET -1.2192 -0.487915 3.41376
                CHANNELS 3 Zrotation Xrotation Yrotation
                JOINT rThumb2
                {
                  OFFSET -3.37035 -0.52449 3.41376
                  CHANNELS 3 Zrotation Xrotation Yrotation
                  End Site
                  {
                    OFFSET -1.78271 -1.18214 1.43049
                  }
                }
              }
              JOINT rIndex1
              {
                OFFSET -7.75947 0.938293 5.60832
                CHANNELS 3 Zrotation Xrotation Yrotation
                JOINT rIndex2
                {
                  OFFSET -2.54057 -0.884171 1.56538
                  CHANNELS 3 Zrotation Xrotation Yrotation
                  End Site
                  {
                    OFFSET -1.62519 -0.234802 1.16502
                  }
                }
              }
              JOINT rMid1
              {
                OFFSET -8.24714 1.18213 3.41376
                CHANNELS 3 Zrotation Xrotation Yrotation
                JOINT rMid2
                {
                  OFFSET -3.10165 -0.590103 1.0647
                  CHANNELS 3 Zrotation Xrotation Yrotation
                  End Site
                  {
                    OFFSET -2.48547 -0.328903 0.83742
                  }
                }
              }
              JOINT rRing1
              {
                OFFSET -8.82822 0.546677 1.51678
                CHANNELS 3 Zrotation Xrotation Yrotation
                JOINT rRing2
                {
                  OFFSET -2.60934 -0.819778 -0.0198488
                  CHANNELS 3 Zrotation Xrotation Yrotation
                  End Site
                  {
                    OFFSET -2.33842 -0.294052 0.168128
                  }
                }
              }
              JOINT rPinky1
              {
                OFFSET -8.27202 -0.0477905 -0.4584
                CHANNELS 3 Zrotation Xrotation Yrotation
                JOINT rPinky2
                {
                  OFFSET -1.82734 -0.647385 -0.700984
                  CHANNELS 3 Zrotation Xrotation Yrotation
                  End Site
                  {
                    OFFSET -1.69225 -0.51767 -0.607171
                  }
                }
              }
            }
          }
        }
      }
      JOINT lCollar
      {
        OFFSET 2.68224 19.2634 -4.8768
        CHANNELS 3 Zrotation Xrotation Yrotation
        JOINT lShldr
        {
          OFFSET 8.77824 -1.95073 1.46304
          CHANNELS 3 Zrotation Xrotation Yrotation
          JOINT lForeArm
          {
            OFFSET 28.1742 -1.7115 0.48768
            CHANNELS 3 Zrotation Xrotation Yrotation
            JOINT lHand
            {
              OFFSET 22.5879 0.773209 7.07136
              CHANNELS 3 Zrotation Xrotation Yrotation
              JOINT lThumb1
              {
                OFFSET 1.2192 -0.487915 3.41376
                CHANNELS 3 Zrotation Xrotation Yrotation
                JOINT lThumb2
                {
                  OFFSET 3.37035 -0.52449 3.41376
                  CHANNELS 3 Zrotation Xrotation Yrotation
                  End Site
                  {
                    OFFSET 1.78271 -1.18214 1.43049
                  }
                }
              }
              JOINT lIndex1
              {
                OFFSET 7.75947 0.938293 5.60832
                CHANNELS 3 Zrotation Xrotation Yrotation
                JOINT lIndex2
                {
                  OFFSET 2.54057 -0.884171 1.56538
                  CHANNELS 3 Zrotation Xrotation Yrotation
                  End Site
                  {
                    OFFSET 1.62519 -0.234802 1.16502
                  }
                }
              }
              JOINT lMid1
              {
                OFFSET 8.24714 1.18213 3.41376
                CHANNELS 3 Zrotation Xrotation Yrotation
                JOINT lMid2
                {
                  OFFSET 3.10165 -0.590103 1.0647
                  CHANNELS 3 Zrotation Xrotation Yrotation
                  End Site
                  {
                    OFFSET 2.48547 -0.328903 0.83742
                  }
                }
              }
              JOINT lRing1
              {
                OFFSET 8.82822 0.546677 1.51678
                CHANNELS 3 Zrotation Xrotation Yrotation
                JOINT lRing2
                {
                  OFFSET 2.60934 -0.819778 -0.0198488
                  CHANNELS 3 Zrotation Xrotation Yrotation
                  End Site
                  {
                    OFFSET 2.33842 -0.294052 0.168128
                  }
                }
              }
              JOINT lPinky1
              {
                OFFSET 8.27202 -0.0477905 -0.4584
                CHANNELS 3 Zrotation Xrotation Yrotation
                JOINT lPinky2
                {
                  OFFSET 1.82734 -0.647385 -0.700984
                  CHANNELS 3 Zrotation Xrotation Yrotation
                  End Site
                  {
                    OFFSET 1.69225 -0.51767 -0.607171
                  }
                }
              }
            }
          }
        }
      }
    }
  }
  JOINT rButtock
  {
    OFFSET -8.77824 4.35084 1.2192
    CHANNELS 3 Zrotation Xrotation Yrotation
    JOINT rThigh
    {
      OFFSET 0 -1.70687 -2.19456
      CHANNELS 3 Zrotation Xrotation Yrotation
      JOINT rShin
      {
        OFFSET 0 -36.8199 0.73152
        CHANNELS 3 Zrotation Xrotation Yrotation
        JOINT rFoot
        {
          OFFSET 0.73152 -45.1104 -5.12064
          CHANNELS 3 Zrotation Xrotation Yrotation
          End Site
          {
            OFFSET -1.1221 -3.69964 12.103
          }
        }
      }
    }
  }
  JOINT lButtock
  {
    OFFSET 8.77824 4.35084 1.2192
    CHANNELS 3 Zrotation Xrotation Yrotation
    JOINT lThigh
    {
      OFFSET 0 -1.70687 -2.19456
      CHANNELS 3 Zrotation Xrotation Yrotation
      JOINT lShin
      {
        OFFSET 0 -36.8199 0.73152
        CHANNELS 3 Zrotation Xrotation Yrotation
        JOINT lFoot
        {
          OFFSET -0.73152 -45.1104 -5.12064
          CHANNELS 3 Zrotation Xrotation Yrotation
          End Site
          {
            OFFSET 1.1221 -3.69964 12.103
          }
        }
      }
    }
  }
}
MOTION
Frames:	7
Frame Time:	0.03333
0.0 0.0 0.0 0.0 0.0 0.0 0.0 0.0 0.0 0.0 0.0 0.0 0.0 0.0 0.0 0.0 0.0 0.0 0.0 0.0 0.0 0.0 0.0 0.0 0.0 0.0 0.0 0.0 0.0 0.0 0.0 0.0 0.0 0.0 0.0 0.0 0.0 0.0 0.0 0.0 0.0 0.0 0.0 0.0 0.0 0.0 0.0 0.0 0.0 0.0 0.0 0.0 0.0 0.0 0.0 0.0 0.0 0.0 0.0 0.0 0.0 0.0 0.0 0.0 0.0 0.0 0.0 0.0 0.0 0.0 0.0 0.0 0.0 0.0 0.0 0.0 0.0 0.0 0.0 0.0 0.0 0.0 0.0 0.0 0.0 0.0 0.0 0.0 0.0 0.0 0.0 0.0 0.0 0.0 0.0 0.0 0.0 0.0 0.0 0.0 0.0 0.0 0.0 0.0 0.0 0.0 0.0 0.0 0.0 0.0 0.0 0.0 0.0 0.0 0.0 0.0 0.0 0.0 0.0 0.0 0.0 0.0 0.0 0.0 0.0 0.0 0.0 0.0 0.0 0.0 0.0 0.0
-0.0455 60.912299999999995 0.050699999999999995 -171.975577 6.114027 -177.179613 2.108828 7.937499 111.097027 -4.692276 -2.639305 -98.441776 -7.972498 32.013285 -141.356928 19.003591 34.0456 115.424823 -0.000716 0.0 -0.000904 -0.000681 -0.0 0.000691 -147.604927 29.260612 152.401967 -68.350749 18.031906 42.710791 7.729259 -12.166465 -71.715287 162.48373 -28.626526 141.854142 -12.927135 12.051255 3.309999 -4.662931 5.395279 11.365144 37.215541 -57.917876 -0.642476 -178.725378 -43.707265 106.630777 -39.290565 53.365527 32.8784 -169.969276 -25.748998 144.196897 -70.377842 -72.13089 -87.279543 -71.796083 83.240535 89.583353 20.624411 70.3217 13.008781 -141.9445 -6.224673 -137.708346 142.973803 39.431693 -147.390209 -96.799222 -35.049785 -129.516584 -57.461463 -61.18318 -72.986887 34.922004 72.11201 -23.187038 -6.464172 -6.452463 0.635313 0.591942 -1.487349 3.995844 166.821586 -43.973928 -122.061326 169.431788 -35.457095 -117.099555 -1.282446 -3.802917 0.679878 -7.464358 -13.048086 1.268109 0.007992 3.557108 -1.119494 -6.389379 31.031478 -4.95803 26.564262 -38.860398 25.607017 19.571317 -37.734995 21.276134 179.998461 75.749856 0.000788 121.601362 77.861458 -16.626889 -47.716359 12.656741 -63.410297 73.783112 -53.68093 151.741183 179.995626 75.749856 0.002993 -147.017955 7.225533 100.968509 84.921675 -4.43447 153.096269 86.422404 -38.994067 170.453771
-0.0429 60.859300000000005 0.0594 -171.941171 6.066782 -177.132286 2.912423 10.694086 40.102682 -1.348806 -6.951261 -27.253414 -8.531829 14.999939 -20.26621 16.305682 -15.962242 5.362269 -0.001401 0.0 -0.00306 -0.001495 -0.0 0.002544 -14.147559 43.061812 15.995625 118.309049 -44.746396 56.34376 -112.568408 24.17716 126.374495 24.285632 -45.556436 15.403011 168.078731 -27.835296 86.302612 -3.159994 -62.831419 -5.462361 -166.81857 -43.97394 122.064662 -0.734733 25.549976 -2.597628 23.899873 -61.334554 1.395353 -163.916172 -6.167491 143.377284 -0.000138 -0.060845 -0.019121 -23.38163 72.955809 36.413096 -138.442399 -6.229306 -135.658535 2.765832 0.227236 -1.847264 158.51509 -30.702216 -167.038039 -129.845546 20.326379 156.134172 -74.318713 -46.214657 -70.539117 154.286405 69.530856 -135.415212 170.593204 -8.277997 -89.948971 -17.254553 -61.018382 -17.358189 46.207442 39.653962 -36.317594 12.355191 25.073405 -5.483091 158.521151 -0.191934 -142.146284 -15.670252 -35.961909 0.513868 0.022064 -1.726182 0.541581 156.033701 -15.221933 -173.659204 141.240685 0.679275 138.262903 155.948932 38.681837 146.19254 -179.996577 75.749932 -0.0 120.231797 77.937722 0.0 -36.406487 30.813275 -174.777026 -166.261516 -7.562674 167.452102 0.000376 0.001003 0.000564 60.854935 -49.105924 -42.86064 -80.106693 -17.521684 16.423184 136.279618 -76.178649 -133.028632
-0.0312 60.7671 0.0536 -171.892075 6.015612 -177.154982 6.860469 9.953599 -67.904084 4.781272 -2.360192 80.642145 8.100897 25.733735 113.755342 -27.079699 18.92745 -124.686943 0.000233 -0.0 -0.000305 0.000233 -0.0 -0.000305 -159.220412 -48.72468 170.569163 -54.313836 -21.432132 -34.036823 -87.545083 -36.214933 -110.001438 27.380354 -48.871933 18.015787 -10.481355 9.910735 2.492117 -26.703333 19.292047 28.344586 159.644113 -69.973778 102.399894 -172.878532 -41.218641 113.147094 -169.091592 -33.247222 145.374022 -1.486667 12.581665 2.534207 -0.014789 -1.323299 -0.414914 9.340974 12.723081 1.660463 -1.17953 -2.984728 -1.094131 -75.943403 -54.868262 -75.674551 -0.118378 -0.714149 0.156777 -72.961922 12.563935 -7.943594 4.986662 -9.19348 -24.512243 3.849131 30.707784 -3.007344 -85.583907 -50.52552 -35.246906 61.905097 -86.210793 100.584743 -11.981282 -21.346875 5.061538 112.137605 38.383894 -89.954156 -2.099794 -6.305504 1.081012 -91.947173 -78.576099 -62.972485 145.112612 -0.627913 178.932154 54.764532 87.580643 -68.03045 124.85218 -29.038287 122.620932 -11.909873 26.118948 -4.383119 -0.000384 -0.001569 -0.0 -10.331762 7.177559 -102.645481 -50.213901 -6.41602 -75.4755 -78.757539 63.077273 -163.012755 0.008177 -0.001208 0.004089 58.426239 -49.349734 51.750854 -45.821707 74.664094 -29.785794 32.648208 -73.0671 117.726043
-0.036699999999999997 60.6703 0.0526 -171.831309 6.006714 -177.234523 4.823162 11.685933 -0.781897 1.915483 -6.917263 14.058427 -13.187971 23.963197 -80.835171 32.220877 9.453221 69.09735 0.003041 0.0 0.001022 -0.002687 -0.0 0.000962 -29.636294 58.071119 32.03695 82.931058 -16.502264 55.358919 176.510948 -0.628302 104.413896 163.954687 -25.403376 142.813343 -174.390484 -12.052645 89.8601 42.051737 -68.482517 32.515316 -1.161961 1.860791 0.669442 87.284898 -60.117337 36.081403 -153.320546 13.628952 138.862482 92.067542 -78.203324 63.004691 -114.669715 66.732428 135.093816 -74.692316 -81.243231 -91.960066 -12.00779 -23.631857 -11.402862 -147.225858 12.833626 -143.864 149.851311 22.601534 -154.913206 118.718052 59.745803 -65.911929 -48.777162 -1.16476 16.005367 174.945479 44.343958 -149.743063 -81.971644 -50.090971 -32.723312 153.071204 -10.971834 -120.030444 95.097854 39.749264 -80.124776 72.851158 53.407736 -51.487532 129.361814 47.296212 -118.699418 -174.900689 -56.684857 -137.910755 145.109922 -0.668035 178.918466 -12.134342 49.059103 3.274727 125.809463 -27.878756 123.552741 -17.343597 43.702891 -6.471926 179.993604 75.749362 0.005263 119.922003 75.742672 180.0 42.391315 -21.032423 148.148538 -127.321315 -74.968532 -40.566696 179.993604 75.749362 0.005263 -147.132178 7.077536 87.830588 86.096393 7.981081 144.706241 -86.200486 63.695191 174.241907
-0.0145 60.540499999999994 0.0263 -171.911195 6.090385 -177.259553 3.668999 7.316648 153.274154 -3.715439 0.93727 -139.687567 -12.809937 21.319725 -66.134692 31.119644 2.077322 58.235955 0.00093 -0.0 -0.003755 0.000796 -0.0 -0.0035 -82.877316 68.299959 86.000668 66.746105 -16.470626 73.176351 175.200718 26.665857 107.761384 164.420833 -24.408585 143.075557 71.830923 -48.264846 25.790689 -108.667641 35.398225 75.259796 20.935027 -37.331899 -5.933662 40.190644 -35.12491 0.483647 -125.642616 49.839273 115.273497 -162.837125 -3.991942 142.998377 -145.121575 1.975401 -179.746902 -76.259481 -77.98383 -97.633006 -146.209605 15.405357 -142.730443 3.387853 2.952827 -1.102922 29.63594 58.071143 -32.036989 -91.858573 -17.215755 -67.747662 -3.752692 -12.15094 -27.091059 8.248832 42.478073 -4.031429 12.305572 11.515006 -3.094419 4.63074 5.432273 -11.022263 153.45382 -21.067913 -121.743661 -32.078857 -39.327419 7.892679 160.67273 -6.667687 -143.24605 -80.983178 -77.631056 -52.534751 0.000175 -0.018456 0.006325 155.445589 -1.618501 -172.04374 138.056941 -7.112941 135.294759 127.750677 -27.849 125.551664 -179.989651 75.749646 -0.007977 123.83721 76.123109 -123.056734 -4.171622 -38.911111 162.189927 84.999524 -40.570076 10.750942 -179.989651 75.749646 -0.007977 -147.178854 6.98043 92.051382 84.903798 -8.494599 4.814328 -158.864799 26.403165 72.391847
-0.033 60.39489999999999 -0.029799999999999997 -171.914539 6.160282 -177.1985 6.961184 10.570208 -63.962789 5.039276 -2.870668 77.485267 8.341155 26.019066 116.312708 -27.267114 20.345324 -120.271441 -0.002041 0.0 -0.000902 0.003687 -0.0 -0.000881 -155.614352 -4.236514 161.990628 154.883351 59.740313 152.941758 149.735342 -61.693874 73.767239 167.492288 -17.032736 144.725394 -67.033859 37.762823 34.644303 71.384609 -49.034421 23.036299 -108.428254 34.160447 91.74221 102.483052 -67.831056 52.947628 -82.840571 61.111902 74.532195 -2.986092 17.122772 3.432467 -145.099785 -1.43877 -178.675314 10.336373 -0.136516 -9.016055 -41.391161 -46.840876 -40.213051 -168.33436 73.129738 -146.192311 155.613516 -4.236321 -161.991422 134.760374 -85.447128 83.828879 85.902522 -70.911387 68.132334 -1.376866 13.392607 -3.142401 12.305652 11.514904 -3.09477 144.708333 -49.472658 -111.965594 -0.184507 -0.300527 0.103685 -7.499376 5.841729 -0.493357 8.416261 20.880415 -5.645684 165.819407 -12.896652 -144.006168 145.118877 0.185225 179.187093 -11.909134 29.602359 5.638895 149.120296 25.572863 145.198586 24.383644 -39.09459 25.525629 -0.000397 -0.001581 0.00051 -11.651062 8.544585 -0.0 12.068878 38.978457 59.063815 -59.931993 -50.444731 -129.384092 179.987353 75.749571 0.008653 -146.061205 7.95313 0.0 41.140461 79.665699 38.167949 -7.021101 -32.407563 -84.594881
